<svg width="103" height="105" viewBox="0 0 103 105" fill="none" xmlns="http://www.w3.org/2000/svg">
<g id="Vector 2">
<path d="M35.5 96.5001L3 77.5001L35.8553 20.5762L46 3L78.5 22C78.5 22 116.5 41.641 94 80.612C71.5 119.583 35.5 96.5001 35.5 96.5001Z" fill="#246897" fill-opacity="0.40"/>
<path d="M35.5 96.5001L3 77.5001L35.8553 20.5762M35.5 96.5001C35.5 96.5001 71.5 119.583 94 80.612C116.5 41.641 78.5 22 78.5 22L46 3L35.8553 20.5762M35.5 96.5001C35.5 96.5001 30.5 77 30.5 59C30.5 41 35.8553 20.5762 35.8553 20.5762M35.5 96.5001C35.5 96.5001 32 80 38 70C44 60 51.5 54 51.5 54C51.5 54 42.2816 47.6745 39 41C35.7184 34.3255 35.8553 20.5762 35.8553 20.5762" stroke="white" stroke-width="4"/>
</g>
</svg>
